<svg width="79" height="82" viewBox="0 0 79 82" fill="none" xmlns="http://www.w3.org/2000/svg">
<path d="M39.5 81.5237C61.3152 81.5237 79 63.4541 79 41.1642C79 18.8742 61.3152 0.804688 39.5 0.804688C17.6848 0.804688 0 18.8742 0 41.1642C0 63.4541 17.6848 81.5237 39.5 81.5237Z" fill="#242424"/>
<path d="M71.1538 65.3104C68.8935 62.3254 67.0492 59.0346 65.6735 55.5321C64.2879 51.9869 63.3659 48.2504 63.753 45.062C64.8827 35.6631 61.1705 30.7166 61.1705 30.7166C61.1705 30.7166 57.2995 21.4832 45.8398 19.9988C34.3801 18.5143 24.3739 30.7166 24.3739 30.7166C24.3739 30.7166 16.9479 37.9717 7.75232 39.7854C7.75232 39.7854 31.0968 45.983 31.0573 52.2847C30.9941 61.5505 25.1845 72.433 25.1845 72.433C25.1845 72.433 24.1235 74.4696 22.4755 77.591C27.7907 80.1876 33.6086 81.5316 39.5 81.5237C52.456 81.5237 63.9505 75.1524 71.1538 65.3104Z" fill="white"/>
<path d="M34.241 35.7649C34.241 35.7649 36.814 27.6842 42.8851 27.6842C48.9563 27.6842 52.8162 32.1939 52.8162 32.1939C52.8162 32.1939 57.414 35.9522 54.6553 40.8381C51.8967 45.7241 46.0112 46.6636 46.0112 46.6636C46.0112 46.6636 39.7251 47.7646 36.2041 40.5363C36.1478 40.424 36.1366 40.2936 36.1729 40.173C36.2092 40.0524 36.2901 39.9511 36.3984 39.8905C36.6884 39.746 36.9996 40.0875 37.9192 41.4032C39.5924 43.7965 42.517 44.5972 42.517 44.5972C42.517 44.5972 49.5061 45.7273 50.2416 39.524C50.9771 33.3208 44.5402 31.6313 44.5402 31.6313C44.5402 31.6313 38.473 29.9395 34.241 35.7649Z" fill="#454545"/>
</svg>
